<?xml version="1.0" standalone="no"?>
<!DOCTYPE svg PUBLIC "-//W3C//DTD SVG 20010904//EN"
 "http://www.w3.org/TR/2001/REC-SVG-20010904/DTD/svg10.dtd">
<svg version="1.0" xmlns="http://www.w3.org/2000/svg"
 width="318.000000pt" height="200.000000pt" viewBox="0 0 318.000000 200.000000"
 preserveAspectRatio="xMidYMid meet">
<metadata>
Created by potrace 1.16, written by Peter Selinger 2001-2019
</metadata>
<g transform="translate(0.000000,200.000000) scale(0.100000,-0.100000)"
fill="#000000" stroke="none">
<path d="M1303 1444 c-46 -23 -41 -36 6 -17 48 19 85 11 107 -22 28 -43 12
-63 -61 -70 -88 -10 -98 -3 -40 29 58 31 25 25 -52 -9 -50 -23 -157 -36 -180
-22 -5 3 -36 -1 -69 -9 -230 -58 -367 -135 -436 -243 -15 -25 -28 -48 -28 -52
0 -4 26 18 58 50 121 120 192 143 430 134 191 -7 256 3 326 47 50 32 86 81 86
118 0 13 -13 37 -29 53 -34 33 -69 37 -118 13z"/>
<path d="M2200 1344 c-25 -12 -61 -26 -80 -30 -31 -6 -33 -5 -21 10 12 14 9
16 -25 16 -23 0 -46 -7 -58 -19 -15 -13 -44 -21 -103 -25 -46 -4 -83 -4 -83 0
0 4 8 16 18 27 16 20 16 20 -8 14 -14 -4 -35 -7 -46 -7 -14 0 -31 -14 -47 -38
l-25 -39 -92 -6 c-109 -8 -269 -40 -346 -68 -73 -28 -65 -33 11 -8 102 34 237
49 443 49 105 0 192 -2 192 -5 0 -3 -10 -19 -22 -35 -14 -20 -28 -28 -39 -25
-12 4 -18 -2 -22 -29 -3 -18 -31 -71 -62 -117 -64 -96 -68 -122 -16 -127 58
-6 99 7 136 42 26 24 35 42 35 65 0 36 -10 40 -28 10 -8 -12 -9 -18 -3 -14 21
12 11 -22 -11 -42 -46 -41 -108 -58 -108 -30 0 15 66 110 157 227 l59 75 264
6 c276 6 329 13 408 53 39 20 129 98 97 84 -5 -2 -35 -16 -65 -30 -67 -32
-172 -54 -303 -64 -87 -6 -97 -5 -91 9 5 14 1 15 -28 6 -50 -14 -238 -24 -238
-12 0 6 21 13 47 17 58 8 124 39 141 66 7 11 11 19 10 19 -2 -1 -23 -12 -48
-25z"/>
<path d="M1412 1185 c-41 -7 -77 -17 -80 -20 -4 -4 7 -5 23 -1 72 14 214 25
262 20 48 -6 51 -8 40 -26 -8 -12 -19 -17 -33 -14 -18 5 -20 2 -16 -19 2 -14
-4 -38 -16 -57 -10 -18 -38 -63 -61 -101 -34 -55 -40 -71 -31 -87 21 -40 127
-18 168 35 21 26 31 96 15 94 -5 0 -21 -17 -38 -37 l-30 -37 27 18 c38 24 42
22 22 -13 -26 -43 -114 -81 -114 -49 0 16 32 66 117 187 40 56 73 107 73 112
0 15 -242 11 -328 -5z"/>
<path d="M1018 1125 c-34 -52 -45 -64 -62 -59 -19 4 -21 0 -21 -43 0 -68 -45
-151 -133 -245 -80 -84 -157 -131 -244 -147 -67 -12 -96 -4 -114 31 -42 81 40
214 154 252 60 20 148 24 164 8 14 -14 28 -16 28 -4 0 15 -49 32 -91 32 -56 0
-139 -26 -179 -55 -41 -31 -49 -32 -24 -4 72 81 258 150 328 123 63 -24 -84
-192 -173 -197 -22 -2 -26 2 -26 23 0 21 4 25 26 22 27 -3 55 20 44 38 -19 30
-105 -24 -105 -67 0 -51 54 -56 135 -13 31 17 60 30 63 30 3 0 -13 -20 -37
-44 -76 -78 -192 -111 -199 -58 -3 19 -6 21 -18 11 -36 -30 5 -65 64 -54 73
14 183 90 198 137 3 11 21 40 39 63 42 55 51 90 30 121 -13 20 -24 24 -69 24
-29 0 -82 -9 -117 -21 -122 -40 -202 -100 -260 -194 -21 -35 -23 -48 -19 -108
4 -60 9 -72 33 -93 78 -67 282 4 440 154 83 79 111 124 222 350 l25 52 -30 0
c-27 0 -36 -8 -72 -65z"/>
<path d="M2195 1156 c-55 -17 -204 -95 -184 -96 14 0 13 -7 -7 -47 -77 -151
134 -170 269 -24 44 46 77 103 77 131 0 5 -9 19 -20 30 -23 23 -74 25 -135 6z
m123 -33 c2 -12 -7 -41 -19 -65 -18 -34 -24 -39 -27 -23 -6 32 -29 44 -64 35
-41 -12 -58 -28 -58 -56 0 -19 5 -24 24 -24 27 0 41 14 31 30 -5 8 -11 7 -21
-1 -19 -16 -18 0 3 23 20 22 59 24 67 2 7 -17 -15 -64 -38 -83 -13 -11 -16
-11 -16 0 0 9 -7 6 -18 -8 -22 -28 -87 -56 -113 -48 -55 18 11 132 126 217 31
23 48 28 80 26 32 -2 41 -7 43 -25z"/>
<path d="M2555 1131 c-93 -35 -201 -90 -177 -90 26 -1 27 -8 7 -35 -25 -32
-19 -83 11 -102 98 -65 344 72 344 192 0 16 -5 35 -12 42 -18 18 -116 14 -173
-7z m149 -7 c20 -19 20 -17 -1 -62 -13 -30 -17 -33 -21 -17 -11 49 -46 58 -99
26 -52 -32 -55 -93 -4 -76 24 7 29 35 6 35 -8 0 -15 4 -15 10 0 14 35 30 64
30 32 0 35 -31 8 -72 -22 -34 -69 -71 -81 -64 -5 3 -22 -1 -37 -9 -16 -8 -44
-15 -61 -15 -28 0 -33 4 -33 23 1 54 126 172 209 198 39 11 48 10 65 -7z"/>
<path d="M1436 1115 c-26 -9 -45 -11 -57 -4 -30 16 -84 10 -127 -13 -50 -28
-165 -122 -153 -126 5 -1 2 -21 -6 -44 -14 -42 -11 -82 9 -105 22 -27 113 -11
154 28 20 19 21 19 39 -1 10 -11 27 -20 37 -20 24 0 70 24 88 46 12 13 6 12
-25 -5 -46 -24 -55 -26 -55 -8 0 14 114 213 136 238 28 32 19 35 -40 14z m-68
-32 c2 -12 -6 -43 -18 -69 l-20 -47 -23 21 c-29 27 -42 27 -67 2 -24 -24 -27
-60 -5 -60 11 0 15 8 13 28 -2 21 2 28 20 30 18 3 22 -1 22 -25 0 -62 -99
-153 -134 -124 -32 26 36 165 115 236 47 42 92 46 97 8z"/>
</g>
</svg>
